<svg width="752pt" height="752pt" version="1.1" viewBox="0 0 752 752" xmlns="http://www.w3.org/2000/svg">
    <defs>
        <clipPath id="a">
            <path d="m181 139.21h390v473.58h-390z"/>
        </clipPath>
    </defs>
    <path d="m376 278.88c-20.852 0-40.848 8.2852-55.594 23.027-14.742 14.746-23.027 34.742-23.027 55.598 0 20.852 8.2852 40.848 23.027 55.594 14.746 14.742 34.742 23.027 55.594 23.027s40.852-8.2852 55.594-23.027c14.746-14.746 23.031-34.742 23.031-55.594-0.027344-20.848-8.3164-40.828-23.055-55.57-14.742-14.738-34.723-23.027-55.57-23.055zm46.535 67.883-43.965 41.625h0.003907c-5.3516 5.0625-13.723 5.0625-19.074 0l-30.035-28.426c-5.5312-5.2734-5.7578-14.027-0.50391-19.578 5.2539-5.5508 14.008-5.8086 19.578-0.57422l20.496 19.426 34.426-32.586 0.003906-0.003907c2.6523-2.625 6.25-4.0703 9.9844-4.0117 3.7344 0.0625 7.2852 1.6211 9.8516 4.3359 2.5664 2.7109 3.9297 6.3398 3.7891 10.07-0.14453 3.7305-1.7852 7.2461-4.5547 9.7539z"
          fill="#fff"/>
    <g clip-path="url(#a)">
        <path d="m564.23 184.2c-3.7656-2.5898-8.5703-3.1562-12.836-1.5156-28.016 10.84-58.637 13.02-87.906 6.2617-29.266-6.7617-55.828-22.156-76.25-44.184l-1.0625-1.1406c-2.625-2.8125-6.3008-4.4102-10.148-4.4102s-7.5195 1.5977-10.145 4.4102l-1.1211 1.1406c-20.418 22.031-46.98 37.426-76.246 44.188-29.27 6.7578-59.891 4.5781-87.906-6.2656-4.2656-1.6367-9.0664-1.0703-12.832 1.5156-3.7656 2.5859-6.0156 6.8633-6.0195 11.434v79.094c0 67.281 17.168 133.45 49.879 192.24 32.711 58.793 79.879 108.27 137.05 143.74 4.4844 2.7812 10.152 2.7812 14.633 0 57.168-35.473 104.34-84.949 137.05-143.74 32.711-58.793 49.875-124.96 49.875-192.24v-79.094c0-4.5664-2.2461-8.8438-6.0117-11.434zm-188.23 279.67c-28.211 0-55.266-11.207-75.215-31.152-19.949-19.949-31.156-47.004-31.156-75.215 0-28.215 11.207-55.27 31.156-75.219 19.949-19.945 47.004-31.152 75.215-31.152s55.27 11.207 75.219 31.152c19.945 19.949 31.152 47.004 31.152 75.219-0.03125 28.199-11.246 55.238-31.188 75.18s-46.98 31.156-75.184 31.188z"
              fill="#fff"/>
    </g>
</svg>
