<svg width="752pt" height="752pt" version="1.1" viewBox="0 0 752 752" xmlns="http://www.w3.org/2000/svg">
    <g fill="#fff">
        <path d="m213.21 524h29.598c16.324 0 29.598-13.273 29.598-29.598 0-16.324-13.273-29.598-29.598-29.598h29.598c16.324 0 29.598-13.273 29.598-29.598s-13.273-29.598-29.598-29.598c16.324 0 29.598-13.273 29.598-29.598 0-16.324-13.273-29.598-29.598-29.598l-14.797-0.007812c16.324 0 29.598-13.273 29.598-29.598 0-16.324-13.273-29.598-29.598-29.598l-44.398-0.003906c-24.484 0-44.398 19.914-44.398 44.398v147.99c0 24.484 19.918 44.402 44.398 44.402z"/>
        <path d="m569.47 503.55 13.723-9.1484v-73.996c-25.496 0-47.012-7.1328-64.535-18.473z"/>
        <path d="m580.87 264.45c-21.254-32.074-56.965-51.238-95.434-51.238h-64.414c-33.039 0-59.82 26.781-59.82 59.82v72.387c0 23.566 6.0625 43.77 29.598 44.961 33.82 1.7148 59.199-25.316 59.199-58.773v-37c0-4.0898 3.3086-7.3984 7.3984-7.3984 4.0898 0 7.3984 3.3086 7.3984 7.3984v22.203h14.801c7.8477 46.574 45.016 88.797 103.6 88.797l-0.003906-133.2c0-2.8125-0.76953-5.6211-2.3203-7.9609z"/>
        <path d="m487.02 371.72c-8-11.129-13.93-23.352-17.871-35.746l-2.1875-4.375h-2.1602c0 36.426-24.27 65.812-57.297 72.262l-16.938 93.176c-1.2773 7.0391-7.4062 12.156-14.562 12.156-7.1523 0-13.281-5.1172-14.562-12.156l-29.598-162.79c-0.78906-4.3203 0.39062-8.7578 3.2031-12.125 2.8125-3.3672 6.9727-5.3164 11.359-5.3164v-43.777c0-34.453 23.59-63.242 55.379-71.789l-11.934-23.871c-5.707-11.41-21.988-11.41-27.695 0l-62.66 125.33c1.5078 4.457 2.5117 9.1445 2.5117 14.105 0 7.9062-2.082 15.348-5.7148 21.781 12.328 7.9023 20.516 21.719 20.516 37.414 0 11.359-4.293 21.738-11.332 29.598 7.0391 7.8633 11.332 18.242 11.332 29.602 0 20.438-13.891 37.707-32.719 42.836 2.0117 5.0742 3.1172 10.594 3.1172 16.363 0 24.484-19.914 44.398-44.398 44.398l-29.598-0.003906c-10.203 0-19.664-2.832-28.051-7.3945l-14.691 29.383c-5.1484 10.297 2.3359 22.41 13.848 22.41h383.38c11.508 0 18.992-12.113 13.848-22.406zm-111.02 181.87c-8.1719 0-14.801-6.625-14.801-14.801 0-8.1719 6.625-14.801 14.801-14.801 8.1719 0 14.801 6.625 14.801 14.801s-6.625 14.801-14.801 14.801z"/>
    </g>
</svg>
