<svg width="752pt" height="752pt" version="1.1" viewBox="0 0 752 752" xmlns="http://www.w3.org/2000/svg">
    <g fill="#f46e16">
        <path d="m376 388.55c-4.7344 0-8.5703 3.8359-8.5703 8.5703 0 3.4102 1.9883 6.3945 4.9258 7.7656v10.039c0 2.0352 1.6562 3.6953 3.6953 3.6953 2.0352 0 3.6953-1.6562 3.6953-3.6953v-10.039c2.8906-1.375 4.9258-4.3555 4.9258-7.7656-0.097656-4.6875-3.9336-8.5703-8.6719-8.5703z"/>
        <path d="m348.34 362.64c18.516-3.2188 36.75-3.0781 55.031-0.09375 0.14062-0.89844 0.1875-1.2773 0.1875-1.6562 0-6.9609 0.1875-13.969-0.09375-20.934-0.61719-14.586-11.98-25.762-26.473-26.379-14.16-0.61719-26.617 9.8047-28.227 24.199-0.71094 6.2969-0.28516 12.738-0.37891 19.086-0.046875 1.707-0.046875 3.457-0.046875 5.7773z"/>
        <path d="m214.7 415.5c4.5938 19.559 11.223 37.746 19.699 53.988 8.9961 17.285 20.41 33.055 33.957 46.883 25.383 25.953 57.824 45.465 99.121 59.719 2.5586 0.85156 5.2109 1.2305 7.7656 1.2305 3.9766 0 7.8125-0.85156 10.609-1.9414 11.414-4.4062 24.77-9.7539 37.555-16.148 17.285-8.5703 32.961-18.895 46.555-30.594 14.254-12.266 26.711-26.426 36.938-42.102 10.184-15.629 18.137-32.395 24.246-51.289 5.3984-16.672 9.2344-34.617 11.746-54.84 4.3086-34.762 3.6953-69.902 3.0312-103.9-0.14062-7.5312-0.28516-15.297-0.37891-22.969-0.14062-12.691-9.0938-21.785-22.305-22.637-2.6055-0.1875-5.2578-0.33203-7.8125-0.47266-8.4766-0.51953-17.238-1.043-25.574-2.1328-37.367-4.832-69.426-19.652-95.238-43.996-4.5938-4.4531-11.035-9.5664-19.086-9.5664-8.0977 0-14.445 5.1133-19.086 9.5664-14.207 13.688-31.258 24.625-50.625 32.582-21.168 8.668-45.039 12.977-75.109 13.59-8.0977 0.14062-14.066 2.3203-18.328 6.582-4.2617 4.3086-6.3945 10.277-6.4414 18.328-0.09375 11.934-0.046875 24.105-0.046875 35.801v15.012c-1.3711 43.242 1.4688 78.004 8.8086 109.31zm110.72-51.102c3.6484-0.37891 7.1992-0.71094 11.035-1.0898v-2.8398c0.14062-8.2891-0.23828-16.574 0.56641-24.77 2.0352-20.508 22.496-36.418 42.953-33.812 17.477 2.1797 30.262 13.355 34.523 30.402 0.85156 3.3633 0.99609 6.9141 1.0898 10.371 0.14062 6.8203 0.046875 13.641 0.046875 20.648 3.7422 0.37891 7.3398 0.75781 10.988 1.0898v81.93c-3.4102 0.33203-6.7734 0.66406-10.133 0.99609-11.699 1.043-23.395 2.4141-35.141 3.0312-6.9141 0.37891-13.922-0.28516-20.887-0.85156-11.176-0.85156-22.352-1.9883-33.531-3.0312-0.42578-0.046875-0.89844-0.14062-1.4688-0.1875-0.042969-27.234-0.042969-54.465-0.042969-81.887z"/>
    </g>
</svg>
