<svg width="752pt" height="752pt" version="1.1" viewBox="0 0 752 752" xmlns="http://www.w3.org/2000/svg">
    <g fill="#ef6e18">
        <path d="m577.86 369.21c-22.516-26.723-103.62-113.93-201.91-113.93-98.211 0-179.3 87.207-201.8 113.93-3.3203 3.9414-3.3203 9.6523 0 13.586 22.508 26.734 103.59 113.93 201.8 113.93 98.289 0 179.39-87.203 201.91-113.93 3.3203-3.9336 3.3203-9.6445 0-13.586m-201.91 85.027c-43.141 0-78.234-34.988-78.234-78.234 0-43.234 35.094-78.227 78.234-78.227 43.242 0 78.328 34.988 78.328 78.227 0.003906 43.242-35.086 78.234-78.328 78.234"/>
        <path d="m375.98 345.53c-16.805 0-30.477 13.625-30.477 30.477 0 16.844 13.672 30.469 30.477 30.469 16.844 0 30.516-13.625 30.516-30.469 0-16.848-13.672-30.477-30.516-30.477"/>
    </g>
</svg>
