<svg width="752pt" height="752pt" version="1.1" viewBox="0 0 752 752" xmlns="http://www.w3.org/2000/svg">
    <defs>
        <clipPath id="a">
            <path d="m139.21 139.21h473.58v473.58h-473.58z"/>
        </clipPath>
    </defs>
    <g clip-path="url(#a)">
        <path d="m566.93 395.11c-21.098-5.8594-47.633-9.625-76.352-10.938l0.003906-214.4h-88.582c-24.887 0-49.293-8.5625-68.727-24.109-5.1953-4.1562-11.723-6.4453-18.375-6.4453-6.6523 0-13.18 2.2891-18.375 6.4453-19.434 15.547-43.84 24.109-68.727 24.109h-88.582v272.38c0 23.359 11.695 44.906 31.281 57.641l112.16 72.902c9.6172 6.25 20.77 9.5547 32.246 9.5547h14.449c7.2617 7.4922 20.309 13.883 39.055 19.09 26.613 7.3906 61.867 11.465 99.266 11.465 37.398 0 72.648-4.0703 99.266-11.465 30.43-8.4531 45.863-20.016 45.863-34.367v-137.49c0-14.348-15.434-25.91-45.867-34.363zm30.59 34.363c0 3.4648-7.2461 12.027-34.676 19.645-25.324 7.0352-59.125 10.91-95.176 10.91-36.055 0-69.855-3.875-95.176-10.906-27.434-7.6211-34.68-16.184-34.68-19.648s7.2461-12.027 34.676-19.645c25.324-7.0352 59.125-10.906 95.18-10.906 36.055 0 69.855 3.875 95.176 10.906 27.43 7.6172 34.676 16.184 34.676 19.645zm-369.43-20.516c-3.6992-6.6406-6.625-13.691-8.6953-20.953l-1.1055-3.8789-17.965-5.9883v-34.82l17.965-5.9883 1.1055-3.8789c2.0703-7.2617 4.9961-14.312 8.6953-20.953l1.9648-3.5234-8.4766-16.953 24.621-24.621 16.953 8.4766 3.5234-1.9609c6.6445-3.6992 13.695-6.625 20.953-8.6953l3.8789-1.1055 5.9844-17.961h34.82l5.9883 17.965 3.8789 1.1055c7.2578 2.0703 14.309 4.9922 20.953 8.6953l3.5234 1.9609 16.953-8.4766 24.621 24.621-8.4766 16.953 1.9609 3.5234c3.6992 6.6445 6.625 13.695 8.6953 20.953l1.1055 3.8789 17.961 5.9883v41.801c-12.543 0.98437-24.512 2.457-35.629 4.3789 3.3359-9.1719 5.0781-18.902 5.0781-28.773 0-46.328-37.691-84.023-84.023-84.023-46.328 0-84.023 37.691-84.023 84.023 0 46.328 37.691 84.023 84.023 84.023 2.5508 0 5.1016-0.13281 7.6367-0.35938v30.914h-25.047l-5.9883-17.961-3.8789-1.1055c-7.2617-2.0703-14.309-4.9961-20.953-8.6953l-3.5234-1.9648-16.953 8.4766-24.621-24.617 8.4766-16.953zm94.465 20.082c-2.5352 0.28125-5.0938 0.43359-7.6523 0.43359-37.906 0-68.746-30.84-68.746-68.746s30.84-68.746 68.746-68.746 68.746 30.84 68.746 68.746c0 11.41-2.8281 22.602-8.1953 32.562-2.4023 0.58594-4.7656 1.1836-7.0469 1.8164-30.125 8.3711-45.539 19.785-45.852 33.934zm79.449-243.99h73.305v198.66c-2.5352-0.039063-5.082-0.0625-7.6367-0.0625-7.7539 0-15.406 0.18359-22.914 0.52734v-51.863l-20.844-6.9492c-1.8555-5.7227-4.1758-11.309-6.9258-16.688l9.832-19.664-40.191-40.191-19.664 9.832c-5.3789-2.75-10.969-5.0664-16.688-6.9258l-6.9531-20.848h-20.785v-74.133c0.41016 0.26172 0.8125 0.53906 1.1953 0.84375 22.129 17.707 49.926 27.461 78.27 27.461zm-87.102 381.92c-8.5117 0-16.785-2.4531-23.922-7.0938l-112.16-72.898c-15.234-9.9023-24.328-26.66-24.328-44.828v-257.1h73.305c28.344 0 56.141-9.75 78.27-27.457 0.38281-0.30469 0.78516-0.58203 1.1953-0.84766l-0.003906 74.133h-20.781l-6.9492 20.844c-5.7227 1.8555-11.309 4.1758-16.688 6.9258l-19.664-9.832-40.191 40.191 9.832 19.664c-2.75 5.3789-5.0664 10.969-6.9258 16.688l-20.844 6.9531v56.84l20.844 6.9492c1.8555 5.7227 4.1758 11.312 6.9258 16.688l-9.832 19.664 40.191 40.195 19.664-9.832c5.3789 2.75 10.969 5.0664 16.688 6.9258l6.9492 20.844h36.059v76.383zm247.95 19.648c-25.324 7.0312-59.125 10.906-95.176 10.906-36.055 0-69.855-3.875-95.176-10.906-27.434-7.6211-34.68-16.184-34.68-19.648v-23.879c7.4766 4.6797 17.676 8.8281 30.59 12.414 26.613 7.3945 61.867 11.465 99.266 11.465 37.398 0 72.648-4.0703 99.266-11.465 12.91-3.5859 23.109-7.7344 30.59-12.414l-0.003906 23.879c0 3.4648-7.2461 12.027-34.676 19.648zm0-45.832c-25.324 7.0352-59.125 10.906-95.176 10.906-36.055 0-69.855-3.875-95.176-10.906-27.434-7.6172-34.68-16.184-34.68-19.645v-23.879c7.4766 4.6797 17.676 8.8281 30.59 12.414 26.613 7.3906 61.867 11.465 99.266 11.465 37.398 0 72.648-4.0703 99.266-11.465 12.91-3.5859 23.109-7.7344 30.59-12.414l-0.003906 23.879c0 3.4609-7.2461 12.027-34.676 19.645zm0-45.832c-25.324 7.0352-59.125 10.91-95.176 10.91-36.055 0-69.855-3.875-95.176-10.906-27.434-7.6211-34.68-16.184-34.68-19.648v-23.879c7.4766 4.6797 17.676 8.8281 30.59 12.414 26.613 7.3906 61.867 11.465 99.266 11.465 37.398 0 72.648-4.0703 99.266-11.465 12.91-3.5859 23.109-7.7344 30.59-12.414l-0.003906 23.879c0 3.4648-7.2461 12.027-34.676 19.645z" fill="#f46e16"/>
    </g>
    <path d="m467.66 429.47c27.418 0 53.227 2.3555 74.629 6.8164l3.1172-14.957c-22.414-4.668-49.301-7.1328-77.746-7.1328z" fill="#f46e16"/>
    <path d="m340.05 332.41-40.43 40.43-9.875-9.875-10.805 10.805 20.68 20.676 51.23-51.23z" fill="#f46e16"/>
    <path d="m185.04 215.59h30.551v-15.277h-45.828v76.387h15.277z" fill="#f46e16"/>
    <path d="m169.77 291.98h15.277v15.277h-15.277z" fill="#f46e16"/>
</svg>
