<svg width="752pt" height="752pt" version="1.1" viewBox="0 0 752 752" xmlns="http://www.w3.org/2000/svg">
    <path d="m563.91 348.08c-0.69531-4.2305-4.3672-7.3281-8.6562-7.3008h-17.875c-5.8125-1.7266-10.379-6.2461-12.164-12.043-3.3398-10.426-7.7695-20.469-13.211-29.969-1.9883-3.3516-1.4648-7.625 1.2773-10.395l14.305-14.305c3.0781-3.0508 3.4727-7.8867 0.94141-11.398-10.98-14.738-24.027-27.812-38.738-38.824-3.5117-2.5508-8.3594-2.1562-11.414 0.92578l-14.348 14.344c-2.7695 2.7422-7.043 3.2695-10.395 1.2773-13.359-7.6602-27.781-13.289-42.797-16.699l-0.003906-0.003906v-26.988c0.027344-4.293-3.0781-7.9688-7.3164-8.6562-18.23-2.8047-36.789-2.8047-55.023 0-4.2383 0.6875-7.3438 4.3633-7.3164 8.6562v26.992c-15.016 3.4102-29.441 9.0391-42.797 16.699-3.3555 1.9922-7.625 1.4648-10.398-1.2773l-14.344-14.344c-3.0547-3.082-7.9023-3.4766-11.414-0.92578-14.715 11.012-27.762 24.086-38.738 38.824-2.5352 3.5117-2.1367 8.3477 0.94141 11.398l14.305 14.305h-0.003906c2.7422 2.7695 3.2695 7.043 1.2812 10.395-5.4453 9.5-9.8711 19.543-13.211 29.969-1.7852 5.7969-6.3516 10.316-12.168 12.043h-17.871c-4.2891-0.027344-7.9609 3.0703-8.6562 7.3008-2.8711 18.504-2.8711 37.336 0 55.836 0.69531 4.2344 4.3672 7.332 8.6562 7.3047h17.875-0.003906c5.8164 1.7266 10.383 6.2422 12.168 12.039 3.3398 10.426 7.7656 20.473 13.211 29.973 1.9883 3.3516 1.4609 7.625-1.2812 10.395l-14.305 14.305h0.003906c-3.0781 3.0508-3.4766 7.8828-0.94141 11.398 10.98 14.734 24.027 27.812 38.738 38.824 3.5117 2.5469 8.3594 2.1562 11.414-0.92578l14.344-14.344c2.7734-2.7422 7.0469-3.2695 10.398-1.2812 13.355 7.6641 27.777 13.289 42.793 16.699l0.003906 0.003906v26.992c-0.023437 4.293 3.0781 7.9648 7.3164 8.6562 18.234 2.8047 36.793 2.8047 55.027 0 4.2344-0.69141 7.3398-4.3633 7.3125-8.6562v-26.992l0.003906-0.003906h0.003907c15.016-3.4102 29.438-9.0352 42.793-16.699 3.3516-1.9883 7.625-1.4609 10.398 1.2812l14.344 14.344c3.0547 3.082 7.9023 3.4727 11.414 0.92578 14.711-11.012 27.758-24.09 38.738-38.824 2.5352-3.5156 2.1367-8.3477-0.94141-11.398l-14.305-14.305h0.003906c-2.7422-2.7695-3.2695-7.043-1.2812-10.395 5.4453-9.5 9.8711-19.547 13.211-29.973 1.7852-5.7969 6.3516-10.312 12.164-12.039h17.875c4.2891 0.027344 7.9609-3.0703 8.6562-7.3047 2.8711-18.5 2.8711-37.332 0-55.836zm-86.266 44.191c-4.0195 25.098-17.184 47.82-36.953 63.793-19.773 15.973-44.754 24.066-70.137 22.719-25.383-1.3438-49.367-12.035-67.34-30.008-17.969-17.977-28.656-41.965-29.996-67.344-1.3438-25.383 6.7539-50.363 22.73-70.133 15.977-19.77 38.703-32.926 63.801-36.941 32.551-5.0117 65.543 5.7852 88.828 29.078 23.289 23.289 34.082 56.285 29.066 88.836zm-50.504-29.055h-11.625v-27.895c-0.011719-14.105-7.5469-27.137-19.766-34.188-12.223-7.0469-27.273-7.0469-39.492 0-12.219 7.0508-19.754 20.082-19.766 34.188v27.891l-11.621 0.003906c-1.2344 0-2.4141 0.48828-3.2891 1.3594-0.87109 0.87109-1.3594 2.0547-1.3594 3.2891v65.082-0.003907c0 2.5703 2.082 4.6484 4.6484 4.6484h102.27c2.5664 0 4.6484-2.0781 4.6484-4.6484v-65.082 0.003907c0-1.2344-0.49219-2.418-1.3633-3.2891s-2.0547-1.3594-3.2852-1.3594zm-34.867 0h-32.539v-27.895c0-5.8125 3.1016-11.184 8.1328-14.09 5.0352-2.9062 11.238-2.9062 16.27 0 5.0352 2.9062 8.1367 8.2773 8.1367 14.09z"
          fill="#f06e18"/>
</svg>
