<svg width="752pt" height="752pt" version="1.1" viewBox="0 0 752 752" xmlns="http://www.w3.org/2000/svg">
    <path d="m279.01 403.4c0.54297-20.805 6.8281-39.621 16.703-53.453 10.57-14.793 25.25-23.941 41.551-23.941s30.988 9.1484 41.551 23.941c9.875 13.828 16.156 32.637 16.703 53.453h5.5742c1.7461 0 3.1562 1.4141 3.1562 3.1562v105.59c0 1.7461-1.4141 3.1562-3.1562 3.1562h-128.98c-1.7461 0-3.1562-1.4141-3.1562-3.1562v-105.59c0-1.7461 1.4141-3.1562 3.1562-3.1562h6.9062zm234.41-3.1484c0 1.0898-0.88281 1.9648-1.9648 1.9648-1.0898 0-1.9648-0.88281-1.9648-1.9648l0.10156-28.281c0-1.0898 0.88281-1.9648 1.9648-1.9648 1.0898 0 1.9648 0.88281 1.9648 1.9648zm-32.18-3.7188c-0.28516 1.0508-1.3672 1.6719-2.4219 1.3906-1.0508-0.28516-1.6719-1.3672-1.3906-2.4219l7.418-27.293c0.28516-1.0508 1.3672-1.6719 2.4219-1.3906 1.0508 0.28516 1.6719 1.3672 1.3906 2.4219zm-30.129-11.934c-0.54297 0.9375-1.7539 1.2617-2.6914 0.71875-0.9375-0.54297-1.2617-1.7539-0.71875-2.6914l14.23-24.445c0.54297-0.9375 1.7539-1.2617 2.6914-0.71875 0.9375 0.54297 1.2617 1.7539 0.71875 2.6914zm-26.016-19.32c-0.77344 0.76562-2.0117 0.76562-2.7852-0.007813-0.76562-0.77344-0.76562-2.0117 0.007813-2.7852l20.07-19.922c0.77344-0.76562 2.0117-0.76562 2.7852 0.007812 0.76562 0.77344 0.76562 2.0117-0.007813 2.7852zm-20.129-25.391c-0.94531 0.53516-2.1484 0.21484-2.6914-0.73438-0.53516-0.94531-0.21484-2.1484 0.73438-2.6914l24.539-14.051c0.94531-0.53516 2.1484-0.21484 2.6914 0.73438 0.53516 0.94531 0.21484 2.1484-0.73438 2.6914zm-12.875-29.742c-1.0508 0.27734-2.1328-0.35547-2.4062-1.4062-0.27734-1.0508 0.35547-2.1328 1.4062-2.4062l27.34-7.2227c1.0508-0.27734 2.1328 0.35547 2.4062 1.4062 0.27734 1.0508-0.35547 2.1328-1.4062 2.4062zm-4.7188-32.062c-1.0898 0-1.9648-0.88281-1.9648-1.9648 0-1.0898 0.88281-1.9648 1.9648-1.9648l28.281 0.10156c1.0898 0 1.9648 0.88281 1.9648 1.9648 0 1.0898-0.88281 1.9648-1.9648 1.9648zm3.7188-32.18c-1.0508-0.28516-1.6719-1.3672-1.3906-2.4219 0.28516-1.0508 1.3672-1.6719 2.4219-1.3906l27.293 7.418c1.0508 0.28516 1.6719 1.3672 1.3906 2.4219-0.28516 1.0508-1.3672 1.6719-2.4219 1.3906zm11.934-30.129c-0.9375-0.54297-1.2617-1.7539-0.71875-2.6914s1.7539-1.2617 2.6914-0.71875l24.445 14.23c0.9375 0.54297 1.2617 1.7539 0.71875 2.6914s-1.7539 1.2617-2.6914 0.71875zm19.32-26.016c-0.76562-0.77344-0.76562-2.0117 0.007813-2.7852 0.77344-0.76562 2.0117-0.76562 2.7852 0.007813l19.922 20.07c0.76562 0.77344 0.76562 2.0117-0.007812 2.7852-0.77344 0.76562-2.0117 0.76562-2.7852-0.007813zm25.391-20.129c-0.53516-0.94531-0.21484-2.1484 0.73437-2.6914 0.94531-0.53516 2.1484-0.21484 2.6914 0.73438l14.051 24.539c0.53516 0.94531 0.21484 2.1484-0.73438 2.6914-0.94531 0.53516-2.1484 0.21484-2.6914-0.73438zm29.742-12.875c-0.27734-1.0508 0.35547-2.1328 1.4062-2.4062 1.0508-0.27734 2.1328 0.35547 2.4062 1.4062l7.2227 27.34c0.27734 1.0508-0.35547 2.1328-1.4062 2.4062-1.0508 0.27734-2.1328-0.35547-2.4062-1.4062zm32.062-4.7188c0-1.0898 0.88281-1.9648 1.9648-1.9648 1.0898 0 1.9648 0.88281 1.9648 1.9648l-0.10156 28.281c0 1.0898-0.88281 1.9648-1.9648 1.9648-1.0898 0-1.9648-0.88281-1.9648-1.9648zm14.492 60.531c2.8164 3.6797 5.3203 8.5938 7.3945 14.484 1.6719 4.7422 3.1094 10.152 4.2461 16.078 2.1562-0.29297 4.2617-0.63281 6.2969-1.0039 7.9648-1.4453 14.965-3.4414 20.594-5.8398-1.6328-2.0898-3.3945-4.082-5.2656-5.9531-8.9102-8.9102-20.41-15.242-33.27-17.758zm1.4531 16.574c-3.8828-10.996-8.8555-17.789-14.004-17.789-5.1445 0-10.117 6.8047-14.004 17.797-1.5312 4.3398-2.8555 9.2891-3.9141 14.711 5.6914 0.55078 11.699 0.85156 17.918 0.85156 6.2266 0 12.234-0.30078 17.918-0.85156-1.0586-5.4219-2.3828-10.371-3.9141-14.711zm11.246 20.191c1.0977 7.3398 1.7539 15.312 1.8867 23.656h37.578c-0.55078-11.531-4.1211-22.273-9.9297-31.453-6.2578 2.8164-14.168 5.1367-23.191 6.7812-2.0586 0.37109-4.1836 0.71094-6.3477 1.0195zm-4.4297 23.656c-0.13281-8.1055-0.77344-15.832-1.832-22.906-6.0547 0.61719-12.422 0.9375-18.992 0.9375-6.5742 0-12.945-0.33203-18.992-0.9375-1.0586 7.0781-1.6953 14.801-1.832 22.906h41.652zm6.3125 6.3125c-0.13281 8.2969-0.78125 16.211-1.8633 23.52 2.1641 0.30078 4.2695 0.64063 6.332 1.0117 9.0547 1.6484 16.984 3.9766 23.262 6.8125 5.7695-9.1562 9.3125-19.859 9.8594-31.344zm-2.9141 29.727c-1.1445 5.9766-2.5898 11.438-4.2773 16.219-2.082 5.8867-4.5781 10.797-7.3945 14.484 12.859-2.5273 24.359-8.8477 33.27-17.758 1.9102-1.9102 3.6953-3.9297 5.3516-6.0625-5.6445-2.4141-12.668-4.4219-20.68-5.8789-2.0273-0.37109-4.1211-0.70312-6.2656-0.99609zm-10.223 14.121c1.5469-4.3789 2.8828-9.375 3.9453-14.855-5.6992-0.55859-11.715-0.85156-17.949-0.85156-6.2266 0-12.25 0.30078-17.949 0.85156 1.0664 5.4766 2.3984 10.473 3.9453 14.855 3.8828 10.996 8.8555 17.797 14.004 17.797 5.1445 0 10.117-6.8047 14.004-17.797zm5.0117-21.082c1.0508-7.0391 1.6797-14.711 1.8164-22.762h-41.652c0.13281 8.0586 0.76562 15.723 1.8164 22.762 6.0547-0.61719 12.43-0.9375 19.016-0.9375 6.5742 0 12.953 0.33203 19.016 0.94531zm-31.562 37.656c-2.8164-3.6797-5.3203-8.5938-7.3945-14.484-1.6875-4.7734-3.1328-10.238-4.2773-16.211-2.3594 0.32422-4.6562 0.69531-6.875 1.1055-7.7578 1.4453-14.578 3.4102-20.07 5.7617 1.6562 2.1328 3.4492 4.1602 5.3516 6.0625 8.9102 8.9102 20.41 15.242 33.27 17.758zm-12.723-36.906c-1.082-7.3008-1.7305-15.227-1.8633-23.512h-37.578c0.55078 11.484 4.0898 22.188 9.8594 31.344 6.1328-2.7695 13.836-5.0586 22.621-6.6914 2.25-0.41797 4.5781-0.79688 6.9609-1.1289zm-1.8633-29.828c0.13281-8.3438 0.78906-16.316 1.8867-23.656-2.3906-0.33203-4.7266-0.71094-6.9844-1.1289-8.7539-1.6328-16.434-3.9141-22.551-6.6602-5.8086 9.1797-9.375 19.922-9.9297 31.453h37.578zm2.9453-29.867c1.1367-5.918 2.5742-11.336 4.2461-16.078 2.082-5.8867 4.5781-10.797 7.3945-14.484-12.859 2.5273-24.359 8.8477-33.27 17.758-1.8711 1.8711-3.6289 3.8594-5.2656 5.9531 5.4766 2.3359 12.266 4.2852 19.984 5.7305 2.2266 0.41797 4.5312 0.78906 6.9062 1.1133zm24.199-38.082c19.637 0 37.414 7.957 50.285 20.828 12.867 12.867 20.828 30.648 20.828 50.285 0 19.637-7.957 37.414-20.828 50.285-12.867 12.867-30.648 20.828-50.285 20.828-19.637 0-37.414-7.957-50.285-20.828-12.867-12.867-20.828-30.648-20.828-50.285 0-19.637 7.957-37.414 20.828-50.285 12.867-12.867 30.648-20.828 50.285-20.828zm-7.7031 214.75v31.406c0 1.7461-1.4141 3.1562-3.1562 3.1562h-31.406c-1.7461 0-3.1562-1.4141-3.1562-3.1562v-31.406c0-1.7461 1.4141-3.1562 3.1562-3.1562h31.406c1.7461 0 3.1562 1.4141 3.1562 3.1562zm-6.3125 28.25v-25.094h-25.094v25.094zm-8.6016 57.336-15.707 27.199c-0.86719 1.5078-2.7852 2.0195-4.293 1.1602l-27.199-15.707c-1.5078-0.86719-2.0195-2.7852-1.1602-4.293l15.707-27.199c0.86719-1.5078 2.7852-2.0195 4.293-1.1602l27.199 15.707c1.5078 0.86719 2.0195 2.7852 1.1602 4.293zm-19.582 21.344 12.559-21.754-21.754-12.559-12.559 21.754zm-36.141 45.336-27.199 15.707c-1.5078 0.86719-3.4258 0.34766-4.293-1.1602l-15.707-27.199c-0.86719-1.5078-0.34766-3.4258 1.1602-4.293l27.199-15.707c1.5078-0.86719 3.4258-0.34766 4.293 1.1602l15.707 27.199c0.86719 1.5078 0.34766 3.4258-1.1602 4.293zm-27.617 8.6836 21.754-12.559-12.559-21.754-21.754 12.559zm-53.957 21.207h-31.406c-1.7461 0-3.1562-1.4141-3.1562-3.1562v-31.406c0-1.7461 1.4141-3.1562 3.1562-3.1562h31.406c1.7461 0 3.1562 1.4141 3.1562 3.1562v31.406c0 1.7461-1.4141 3.1562-3.1562 3.1562zm-28.25-6.3125h25.094v-25.094h-25.094zm-57.336-8.6016-27.199-15.707c-1.5078-0.86719-2.0195-2.7852-1.1602-4.293l15.707-27.199c0.86719-1.5078 2.7852-2.0195 4.293-1.1602l27.199 15.707c1.5078 0.86719 2.0195 2.7852 1.1602 4.293l-15.707 27.199c-0.86719 1.5078-2.7852 2.0195-4.293 1.1602zm-21.344-19.582 21.754 12.559 12.559-21.754-21.754-12.559zm-45.336-36.141-15.707-27.199c-0.86719-1.5078-0.34766-3.4258 1.1602-4.293l27.199-15.707c1.5078-0.86719 3.4258-0.34766 4.293 1.1602l15.707 27.199c0.86719 1.5078 0.34766 3.4258-1.1602 4.293l-27.199 15.707c-1.5078 0.86719-3.4258 0.34766-4.293-1.1602zm-8.6836-27.617 12.559 21.754 21.754-12.559-12.559-21.754zm-21.207-53.965v-31.406c0-1.7461 1.4141-3.1562 3.1562-3.1562h31.406c1.7461 0 3.1562 1.4141 3.1562 3.1562v31.406c0 1.7461-1.4141 3.1562-3.1562 3.1562h-31.406c-1.7461 0-3.1562-1.4141-3.1562-3.1562zm6.3125-28.25v25.094h25.094v-25.094zm8.6016-57.336 15.707-27.199c0.86719-1.5078 2.7852-2.0195 4.293-1.1602l27.199 15.707c1.5078 0.86719 2.0195 2.7852 1.1602 4.293l-15.707 27.199c-0.86719 1.5078-2.7852 2.0195-4.293 1.1602l-27.199-15.707c-1.5078-0.86719-2.0195-2.7852-1.1602-4.293zm19.582-21.344-12.559 21.754 21.754 12.559 12.559-21.754zm36.141-45.336 27.199-15.707c1.5078-0.86719 3.4258-0.34766 4.293 1.1602l15.707 27.199c0.86719 1.5078 0.34766 3.4258-1.1602 4.293l-27.199 15.707c-1.5078 0.86719-3.4258 0.34766-4.293-1.1602l-15.707-27.199c-0.86719-1.5078-0.34766-3.4258 1.1602-4.293zm27.617-8.6836-21.754 12.559 12.559 21.754 21.754-12.559zm53.957-21.207h31.406c1.7461 0 3.1562 1.4141 3.1562 3.1562v31.406c0 1.7461-1.4141 3.1562-3.1562 3.1562h-31.406c-1.7461 0-3.1562-1.4141-3.1562-3.1562v-31.406c0-1.7461 1.4141-3.1562 3.1562-3.1562zm28.25 6.3125h-25.094v25.094h25.094zm32.574 186.56c0-1.0898 0.88281-1.9727 1.9727-1.9727 1.0898 0 1.9727 0.88281 1.9727 1.9727v38.066c0 1.0898-0.88281 1.9727-1.9727 1.9727h-36.086c-1.0898 0-1.9727-0.88281-1.9727-1.9727 0-1.0898 0.88281-1.9727 1.9727-1.9727h34.113zm-81.598-106.83c-9.1484 12.809-14.98 30.324-15.52 49.797h10.332c0.50391-16.234 4.8867-30.918 11.723-41.77 7.5391-11.98 18.098-19.395 29.883-19.395s22.344 7.4102 29.883 19.395c6.8281 10.852 11.215 25.535 11.723 41.77h10.332c-0.53516-19.473-6.3633-36.988-15.52-49.797-9.3945-13.141-22.273-21.273-36.418-21.273-14.152 0-27.035 8.1289-36.418 21.273zm1.1367 49.797h70.57c-0.49609-15.027-4.5-28.516-10.727-38.414-6.3945-10.152-15.082-16.434-24.555-16.434s-18.16 6.2812-24.555 16.434c-6.2266 9.8984-10.238 23.387-10.727 38.414zm95.949 6.3125h-122.66v99.27h122.66z"
          fill="#f46e16"/>
</svg>
