<svg width="752pt" height="752pt" version="1.1" viewBox="0 0 752 752" xmlns="http://www.w3.org/2000/svg">
    <path d="m492.73 202.14h-233.45c-25.535 0-46.223 20.688-46.223 46.223v171.04c0 25.527 20.688 46.23 46.223 46.23h67.57l49.152 84.238 49.152-84.238h67.574c25.535 0 46.223-20.703 46.223-46.23v-171.04c0.003906-25.535-20.688-46.223-46.223-46.223zm-117.04 57.754c28.703 0 51.98 23.273 51.98 51.973 0 28.703-23.273 51.98-51.98 51.98-28.707 0-51.984-23.273-51.984-51.98 0-28.699 23.277-51.973 51.984-51.973zm-73.398 144.46c6.7383-18.039 20.469-32.863 38.039-41.473 10.043 6.9805 22.227 11.082 35.359 11.082 13.125 0 25.309-4.1016 35.359-11.082 17.566 8.6133 31.297 23.434 38.039 41.473z"
          fill="#fff"/>
</svg>
