<svg width="752pt" height="752pt" version="1.1" viewBox="0 0 752 752" xmlns="http://www.w3.org/2000/svg">
    <defs>
        <clipPath id="b">
            <path d="m181 139.21h390v424.79h-390z"/>
        </clipPath>
        <clipPath id="a">
            <path d="m265 575h224v37.793h-224z"/>
        </clipPath>
    </defs>
    <g>
        <g clip-path="url(#b)">
            <path d="m561.73 183.61c-7.3984-10.359-18.5-17.758-31.82-20.719-12.578-2.2188-25.16 0-34.777 7.3984-10.359 7.3984-16.281 16.281-17.02 26.641-1.4805-17.758-3.6992-34.777-7.3984-51.059-0.73828-3.6992-4.4414-7.3984-8.8789-7.3984h-171.68c-4.4414 0-8.1406 2.9609-8.8789 7.3984-5.1797 23.68-8.1406 48.84-8.1406 74.738 0 44.398 8.1406 85.098 21.461 117.66-5.1797-8.8789-12.578-17.02-17.758-22.199l-2.2188-2.2188-54.02-62.16c-8.1406-8.8789-13.32-17.758-17.02-25.898-6.6602-14.801-4.4414-22.199 2.2188-31.82 4.4414-6.6602 11.84-11.098 19.98-12.578 8.1406-1.4805 15.539 0 21.461 4.4414 8.1406 5.918 15.539 14.801 2.9609 32.559-2.9609 3.6992-2.2188 9.6211 2.2188 12.578 3.6992 2.9609 9.6211 1.4805 12.578-2.2188 7.3984-10.359 11.098-20.719 9.6211-30.34-0.73828-10.359-6.6602-19.98-17.02-27.379-9.6211-6.6602-22.199-9.6211-34.777-7.3984-14.062 2.2188-25.164 9.6172-32.562 19.977-10.359 16.281-11.84 30.34-3.6992 48.84 4.4375 10.359 11.098 20.719 20.719 31.078l54.758 62.898c0.73828 0.73828 1.4805 1.4805 2.9609 2.9609 15.539 16.281 17.758 23.68 17.02 26.641-0.73828 2.2188-2.2188 3.6992-3.6992 4.4414-2.9609 1.4805-6.6602 1.4805-9.6211 0.73828-2.9609-0.73828-5.1797-2.9609-5.918-5.918-1.4805-2.9609-1.4805-5.1797 0-8.1406 1.4805-4.4414-0.73828-9.6211-5.1797-11.84-4.4414-1.4805-9.6211 0.73828-11.84 5.1797-2.9609 7.3984-2.2188 14.801 0.73828 22.199 2.9609 6.6602 8.8789 12.578 16.281 14.801 3.6992 1.4805 6.6602 2.2188 10.359 2.2188 5.1797 0 9.6211-1.4805 14.059-3.6992 6.6602-3.6992 11.098-9.6211 12.578-16.281 0.73828-3.6992 0.73828-8.1406-0.73828-11.84 13.32 29.598 31.82 50.316 53.277 59.938 1.4805 19.238-0.73828 85.098-48.098 99.156-8.1406 2.2188-12.578 9.6211-12.578 18.5v38.477h170.19v-39.961c0-8.1406-5.1797-15.539-12.578-18.5-48.098-14.059-49.578-79.918-48.098-99.156 20.719-8.8789 38.477-29.598 52.539-57.719-0.73828 3.6992-0.73828 6.6602 0 10.359 1.4805 6.6602 5.918 12.578 12.578 16.281 4.4414 2.2188 8.8789 3.6992 14.059 3.6992 3.6992 0 7.3984-0.73828 10.359-2.2188 14.801-5.1797 22.199-22.199 17.02-37-1.4805-4.4414-6.6602-6.6602-11.84-5.1797-4.4414 1.4805-6.6602 6.6602-5.1797 11.84 0.73828 2.9609 0.73828 5.918 0 8.1406-1.4805 2.9609-2.9609 4.4414-5.918 5.918-2.9609 1.4805-6.6602 0.73828-9.6211-0.73828-1.4805-0.73828-2.9609-2.2188-3.6992-4.4414-0.73828-2.9609 1.4805-10.359 17.02-26.641l2.9609-2.9609 54.758-62.898c8.8789-10.359 15.539-20.719 19.98-30.34 7.3945-18.492 5.9141-32.555-4.4453-48.832zm-236.05 91.758c-5.918 0-9.6211-2.9609-10.359-7.3984-2.2188-14.801-3.6992-31.078-3.6992-47.359 0-5.1797 3.6992-8.8789 8.8789-8.8789 5.1797 0 8.8789 3.6992 8.8789 8.8789 0 15.539 0.73828 30.34 2.9609 44.398 2.2188 5.1797-1.4805 9.6172-6.6602 10.359zm223.47-50.32c-3.6992 8.8789-9.6211 17.02-17.02 25.898l-54.758 62.898c-0.73828 0.73828-1.4805 1.4805-2.2188 2.2188-4.4414 4.4414-10.359 11.098-15.539 18.5 12.578-31.82 19.98-71.039 19.98-113.96 0-5.1797 0-9.6211-0.73828-14.801 1.4805 6.6602 4.4414 14.059 9.6211 21.461 2.9609 3.6992 8.1406 5.1797 12.578 2.2188 3.6992-2.9609 5.1797-8.1406 2.2188-12.578-12.578-17.758-5.918-26.641 2.9609-32.559 5.918-4.4414 13.32-5.918 21.461-4.4414 8.1406 1.4805 15.539 5.918 19.98 12.578 5.9102 11.105 7.3906 18.504 1.4727 32.562z"
                  fill="#fff"/>
        </g>
        <g clip-path="url(#a)">
            <path d="m469.24 575.05h-184.99c-10.359 0-19.238 8.8789-19.238 19.238s8.8789 19.238 19.238 19.238h184.99c10.359 0 19.238-8.8789 19.238-19.238-0.73828-11.102-8.8789-19.238-19.238-19.238z"
                  fill="#fff"/>
        </g>
    </g>
</svg>
