<svg width="752pt" height="752pt" version="1.1" viewBox="0 0 752 752" xmlns="http://www.w3.org/2000/svg">
    <path d="m361.27 606.73c-8.793 2.5664-18.246 1.5039-26.254-2.9414-8.0078-4.4492-13.902-11.918-16.367-20.738l-8.9531-32.109h-48.684c-12.559 0-24.605-4.9883-33.488-13.871-8.8789-8.8789-13.871-20.926-13.871-33.484v-48.07l-12.551-4.168h0.003906c-8.6289-2.8633-15.648-9.2422-19.316-17.559-3.6719-8.3164-3.6562-17.801 0.039062-26.105l26.617-59.766c3.4375-7.6875 5.2148-16.016 5.207-24.438 0.035156-37.477 11.766-74.004 33.562-104.49 21.793-30.488 52.559-53.41 88.008-65.57 1.7695 12.125 3.3477 24.5 4.7344 37.129-26.418 10.699-49.051 29.027-65.012 52.645-15.957 23.617-24.52 51.453-24.59 79.957 0.023437 13.531-2.8164 26.91-8.3359 39.262l-24.91 55.836 15.203 5.1133c5.2148 1.7148 9.75 5.0352 12.965 9.4844 3.2148 4.4453 4.9414 9.7969 4.9375 15.285v55.738c0 5.9648 4.832 10.797 10.797 10.797h76.105l16.148 56.828 163.05-46.555-26.992-94.715 7.2461-7.5312-0.003906 0.003906c29.715-30.832 44.039-73.367 39.031-115.89-5.0117-42.527-28.824-80.57-64.887-103.66-1.1367-14.777-2.5586-29.301-4.2617-43.57 34.082 15.188 62.578 40.629 81.523 72.773 18.945 32.145 27.398 69.398 24.176 106.57-3.2227 37.176-17.953 72.418-42.145 100.83l21.926 76.91c2.5508 8.793 1.4844 18.238-2.9609 26.242-4.4453 8.0039-11.906 13.898-20.719 16.379zm-28.746-176.93c-6.6484-4.0039-14.715-4.9062-22.086-2.4688-7.3672 2.4375-13.309 7.9688-16.258 15.148-2.9531 7.1758-2.625 15.285 0.89844 22.203 3.5234 6.9141 9.8906 11.949 17.434 13.781 7.543 1.832 15.508 0.28125 21.812-4.25 6.3008-4.5273 10.316-11.582 10.984-19.316 21.645-13.215 39.227-32.141 50.816-54.695 18.238 3.3633 37.008-1.8633 50.883-14.164 13.879-12.301 21.316-30.309 20.168-48.816-1.1523-18.512-10.766-35.457-26.062-45.945-0.042969-47.875-3.207-95.699-9.4688-143.16-8.4414-1.8555-17.004-3.0898-25.621-3.6914-4.2305-0.31641-8.4766-0.47656-12.738-0.47656-8.5898 0-17.168 0.60156-25.672 1.8008 6.8672 47.176 10.398 94.781 10.562 142.45-17.785 9.7578-29.457 27.816-31.051 48.039-1.5938 20.223 7.1055 39.891 23.141 52.312-8.6875 16.863-21.719 31.102-37.742 41.25z"
          fill="#ef6e18"/>
</svg>
