<svg width="752pt" height="752pt" version="1.1" viewBox="0 0 752 752" xmlns="http://www.w3.org/2000/svg">
    <path d="m376 162.89c-56.52 0-110.73 22.453-150.69 62.418s-62.418 94.172-62.418 150.69c0 56.523 22.453 110.73 62.418 150.7 39.965 39.965 94.172 62.418 150.69 62.418 56.523 0 110.73-22.453 150.7-62.418 39.965-39.969 62.418-94.172 62.418-150.7-0.0625-56.5-22.535-110.67-62.488-150.62s-94.121-62.426-150.62-62.488zm-75.062 42.621c-27.941 36.086-46.316 92.348-48.543 157.32h-62.32c2.4531-33.816 14.07-66.328 33.602-94.047 19.531-27.715 46.242-49.59 77.262-63.277zm-110.86 183.8h62.324c2.2266 64.977 20.602 121.24 48.543 157.32h-0.003906c-31.02-13.688-57.73-35.562-77.262-63.277-19.531-27.719-31.148-60.23-33.602-94.047zm172.62 0v171.39c-44.422-12.363-80.273-84.773-83.637-171.39zm0-26.617-83.637 0.003906c3.3633-86.621 39.215-159.03 83.637-171.39zm26.613-171.39c44.422 12.266 80.508 84.676 83.633 171.29h-83.633zm0 369.39v-171.39h83.637c-3.3633 86.617-39.215 159.03-83.637 171.39zm61.566-14.207c27.941-36.086 46.316-92.348 48.543-157.32h62.512c-2.457 33.816-14.07 66.328-33.602 94.043-19.531 27.719-46.242 49.594-77.266 63.281zm48.73-183.8c-2.2266-64.977-20.602-121.24-48.543-157.18 31.004 13.676 57.699 35.531 77.23 63.219 19.527 27.688 31.156 60.172 33.637 93.965z"
          fill="#fff"/>
</svg>
